<?xml version="1.0" encoding="utf-8"?>
<!-- Generator: Adobe Illustrator 16.0.0, SVG Export Plug-In . SVG Version: 6.00 Build 0)  -->
<!DOCTYPE svg PUBLIC "-//W3C//DTD SVG 1.1//EN" "http://www.w3.org/Graphics/SVG/1.1/DTD/svg11.dtd">
<svg version="1.1" id="Capa_1" xmlns="http://www.w3.org/2000/svg" xmlns:xlink="http://www.w3.org/1999/xlink" x="0px" y="0px"
	 width="512px" height="512px" viewBox="0 0 512 512" enable-background="new 0 0 512 512" xml:space="preserve">
<g>
	<path fill="#7EAD61" d="M504.489,421.587h-12.434V156.854c0-27.061-22.017-49.077-49.078-49.077h-19.439
		c-4.149,0-7.512,3.362-7.512,7.511s3.362,7.511,7.512,7.511h19.439c18.778,0,34.056,15.277,34.056,34.055v264.732h-167.9
		c-5.126,0-9.908,2.528-12.79,6.766l-2.253,3.311c-2.092,3.075-5.563,4.911-9.283,4.911h-58.617c-3.719,0-7.19-1.836-9.284-4.911
		l-2.252-3.311c-2.883-4.235-7.665-6.766-12.79-6.766H34.967V156.854c0-18.777,15.278-34.055,34.056-34.055h122.182
		c4.148,0,7.511-3.362,7.511-7.511s-3.363-7.511-7.511-7.511H69.022c-27.062,0-49.078,22.016-49.078,49.077v264.732H7.511
		c-4.148,0-7.511,3.362-7.511,7.511v15.639c0,28.272,23.002,51.274,51.274,51.274h409.45c28.272,0,51.274-23.002,51.274-51.274
		v-15.639C512,424.949,508.637,421.587,504.489,421.587z M496.978,444.736c0,19.989-16.263,36.252-36.252,36.252H51.274
		c-19.989,0-36.252-16.263-36.252-36.252v-8.127h186.844c0.148,0,0.288,0.073,0.371,0.195l2.252,3.31
		c4.892,7.189,13.005,11.481,21.702,11.481h58.617c8.696,0,16.81-4.292,21.702-11.481l2.252-3.31l0.001-0.001
		c0.084-0.122,0.222-0.194,0.37-0.194h187.844L496.978,444.736L496.978,444.736z"/>
	<path fill="#7EAD61" d="M280.695,115.289c0,4.149,3.362,7.511,7.512,7.511h28.249c4.149,0,7.512-3.362,7.512-7.511
		s-3.362-7.511-7.512-7.511h-28.249C284.058,107.777,280.695,111.14,280.695,115.289z"/>
	<path fill="#7EAD61" d="M316.456,154.846c4.149,0,7.512-3.362,7.512-7.511c0-4.149-3.362-7.511-7.512-7.511h-28.249
		c-4.149,0-7.512,3.362-7.512,7.511c0,4.149,3.362,7.511,7.512,7.511H316.456z"/>
	<path fill="#7EAD61" d="M346.501,257.542c-4.149,0-7.512,3.362-7.512,7.511V389.54h-17.75V202.204
		c0-9.104-7.406-16.511-16.513-16.511h-28.99c-9.105,0-16.512,7.407-16.512,16.511V389.54h-17.75V243.973
		c0-9.104-7.407-16.511-16.512-16.511h-28.992c-9.104,0-16.511,7.407-16.511,16.511V389.54h-17.75V276.342
		c0-9.105-7.407-16.513-16.511-16.513h-28.992c-9.104,0-16.512,7.407-16.512,16.513v40.383c0,4.149,3.363,7.512,7.511,7.512
		s7.511-3.362,7.511-7.512v-40.383c0-0.822,0.668-1.49,1.49-1.49h28.992c0.821,0,1.489,0.668,1.489,1.49v113.197h-31.971v-40.778
		c0-4.149-3.363-7.511-7.511-7.511s-7.511,3.361-7.511,7.511v40.778h-32.68V156.854c0-1.107,0.9-2.009,2.008-2.009h122.183
		c4.148,0,7.511-3.362,7.511-7.511c0-4.149-3.363-7.511-7.511-7.511H69.022c-9.391,0-17.03,7.64-17.03,17.031v240.196
		c0,4.149,3.363,7.511,7.511,7.511h392.994c4.149,0,7.512-3.361,7.512-7.511V156.854c0-9.391-7.641-17.031-17.031-17.031h-19.439
		c-4.149,0-7.512,3.362-7.512,7.511c0,4.149,3.362,7.511,7.512,7.511h19.439c1.107,0,2.009,0.9,2.009,2.009V389.54h-43.981V109.786
		c0-9.104-7.407-16.511-16.512-16.511h-28.991c-9.104,0-16.512,7.407-16.512,16.511v123.231c0,4.149,3.362,7.511,7.512,7.511
		c4.148,0,7.511-3.362,7.511-7.511V109.786c0-0.821,0.668-1.489,1.489-1.489h28.991c0.821,0,1.489,0.668,1.489,1.489V389.54h-31.971
		V265.053C354.012,260.904,350.648,257.542,346.501,257.542L346.501,257.542z M194.481,389.54V243.973
		c0-0.821,0.668-1.489,1.489-1.489h28.992c0.821,0,1.49,0.668,1.49,1.489V389.54H194.481z M274.245,389.54V202.204
		c0-0.821,0.669-1.489,1.49-1.489h28.991c0.82,0,1.49,0.668,1.49,1.489V389.54H274.245z"/>
	<path fill="#7EAD61" d="M200.408,81.843h13.332v17.219c0,4.149,3.363,7.511,7.511,7.511s7.511-3.362,7.511-7.511V77.236
		c0-5.742-4.673-10.414-10.415-10.414h-7.802l29.162-33.411l29.163,33.411h-7.801c-5.743,0-10.415,4.672-10.415,10.414v85.76
		h-21.891V131.1c0-4.149-3.363-7.511-7.511-7.511s-7.511,3.362-7.511,7.511v34.3c0,6.958,5.662,12.619,12.62,12.619h26.696
		c6.958,0,12.621-5.66,12.621-12.619V81.843h13.331c4.074,0,7.797-2.397,9.482-6.107s1.043-8.09-1.637-11.156l-39.298-45.025
		c-1.978-2.267-4.838-3.567-7.847-3.567s-5.869,1.3-7.847,3.567l-39.298,45.024c-2.68,3.067-3.322,7.449-1.636,11.157
		C192.611,79.447,196.333,81.843,200.408,81.843L200.408,81.843z"/>
</g>
</svg>
