<?xml version="1.0" encoding="utf-8"?>
<!-- Generator: Adobe Illustrator 16.0.0, SVG Export Plug-In . SVG Version: 6.00 Build 0)  -->
<!DOCTYPE svg PUBLIC "-//W3C//DTD SVG 1.1//EN" "http://www.w3.org/Graphics/SVG/1.1/DTD/svg11.dtd">
<svg version="1.1" id="Capa_1" xmlns="http://www.w3.org/2000/svg" xmlns:xlink="http://www.w3.org/1999/xlink" x="0px" y="0px"
	 width="612px" height="612px" viewBox="0 90 612 612" enable-background="new 0 90 612 612" xml:space="preserve">
<g>
	<g>
		<path fill="#7EAD61" d="M570.264,616.537c23.013,0,41.736-18.723,41.736-41.737V149.766C612,116.811,585.189,90,552.234,90H59.766
			C26.811,90,0,116.811,0,149.766V574.8c0,23.015,18.723,41.737,41.737,41.737h13.248v61.557H11.953
			C5.352,678.094,0,683.446,0,690.047S5.352,702,11.953,702h588.094c6.602,0,11.953-5.353,11.953-11.953
			s-5.352-11.953-11.953-11.953h-43.031v-61.557H570.264z M23.906,149.766c0-19.773,16.086-35.859,35.859-35.859h492.469
			c19.772,0,35.859,16.086,35.859,35.859v26.297H25.106c-0.405,0-0.806,0.021-1.2,0.061V149.766z M131.484,678.094H78.891V570.516
			h52.594V678.094z M265.359,678.094h-52.594V438.353h52.594V678.094z M399.234,678.094h-52.594V539.438h52.594V678.094z
			 M545.063,396.598h-76.5c-6.602,0-11.953,5.353-11.953,11.953v60.362c0,6.601,5.352,11.953,11.953,11.953
			s11.953-5.353,11.953-11.953v-48.409h52.594v257.59h-52.594V549.299c0-6.601-5.352-11.953-11.953-11.953
			s-11.953,5.353-11.953,11.953v128.795h-33.469V527.484c0-6.601-5.352-11.953-11.953-11.953h-76.5
			c-6.602,0-11.953,5.353-11.953,11.953v150.609h-33.469V426.399c0-6.601-5.352-11.953-11.953-11.953h-76.5
			c-6.602,0-11.953,5.353-11.953,11.953v251.694h-33.469V558.563c0-6.601-5.352-11.953-11.953-11.953h-76.5
			c-6.602,0-11.953,5.353-11.953,11.953v34.068H41.737c-9.833,0-17.831-7.999-17.831-17.831V199.908
			c0.395,0.04,0.795,0.061,1.2,0.061h562.987V574.8c0,9.832-7.999,17.831-17.83,17.831h-13.248v-184.08
			C557.016,401.95,551.664,396.598,545.063,396.598z"/>
	</g>
</g>
<g>
	<g>
		<path fill="#7EAD61" d="M535.5,133.031H265.437c-6.602,0-11.953,5.353-11.953,11.953s5.352,11.953,11.953,11.953H535.5
			c6.602,0,11.953-5.353,11.953-11.953S542.102,133.031,535.5,133.031z"/>
	</g>
</g>
<g>
	<g>
		<path fill="#7EAD61" d="M132.763,136.534c-2.223-2.224-5.307-3.502-8.451-3.502s-6.228,1.278-8.451,3.502
			c-2.224,2.223-3.502,5.307-3.502,8.451s1.279,6.228,3.502,8.45c2.223,2.225,5.307,3.503,8.451,3.503s6.228-1.279,8.451-3.503
			c2.224-2.222,3.502-5.306,3.502-8.45S134.987,138.757,132.763,136.534z"/>
	</g>
</g>
<g>
	<g>
		<path fill="#7EAD61" d="M84.951,136.534c-2.223-2.224-5.307-3.502-8.451-3.502s-6.228,1.278-8.451,3.502
			c-2.224,2.223-3.502,5.307-3.502,8.451s1.279,6.228,3.502,8.45c2.223,2.225,5.307,3.503,8.451,3.503s6.228-1.279,8.451-3.503
			c2.224-2.222,3.502-5.306,3.502-8.45S87.174,138.757,84.951,136.534z"/>
	</g>
</g>
<g>
	<g>
		<path fill="#7EAD61" d="M180.576,136.534c-2.223-2.224-5.295-3.502-8.451-3.502c-3.144,0-6.228,1.278-8.451,3.502
			c-2.224,2.223-3.502,5.307-3.502,8.451s1.279,6.228,3.502,8.45c2.223,2.225,5.307,3.503,8.451,3.503s6.228-1.279,8.451-3.503
			c2.224-2.222,3.502-5.306,3.502-8.45S182.799,138.757,180.576,136.534z"/>
	</g>
</g>
<g>
	<g>
		<path fill="#7EAD61" d="M477.014,503.064c-2.224-2.235-5.308-3.503-8.451-3.503s-6.228,1.269-8.451,3.503
			c-2.223,2.223-3.502,5.307-3.502,8.45s1.279,6.228,3.502,8.451c2.224,2.222,5.308,3.502,8.451,3.502s6.228-1.278,8.451-3.502
			c2.223-2.224,3.502-5.308,3.502-8.451C480.516,508.359,479.236,505.287,477.014,503.064z"/>
	</g>
</g>
<g>
	<g>
		<path fill="#7EAD61" d="M506.813,252.49c-23.729,0-43.031,19.303-43.031,43.031c0,9.425,3.054,18.146,8.213,25.243l-79.398,79.398
			c-6.162-3.41-13.24-5.358-20.769-5.358c-6.783,0-13.202,1.584-18.915,4.392l-82.905-82.906c3.41-6.162,5.358-13.241,5.358-20.769
			c0-23.729-19.303-43.031-43.031-43.031s-43.031,19.303-43.031,43.031c0,8.293,2.364,16.041,6.445,22.618l-70.587,70.585
			c-6.162-3.41-13.24-5.358-20.768-5.358c-23.728,0-43.031,19.303-43.031,43.031c0,23.729,19.303,43.031,43.031,43.031
			c23.729,0,43.031-19.303,43.031-43.031c0-7.527-1.948-14.606-5.358-20.769l71.43-71.429c5.693,2.784,12.085,4.352,18.838,4.352
			c7.527,0,14.605-1.948,20.768-5.358l82.094,82.093c-4.053,6.563-6.399,14.284-6.399,22.547c0,23.729,19.303,43.031,43.031,43.031
			c23.728,0,43.031-19.303,43.031-43.031c0-7.527-1.948-14.606-5.358-20.769l81.526-81.526c4.892,1.939,10.215,3.015,15.786,3.015
			c23.729,0,43.031-19.303,43.031-43.031C549.844,271.792,530.541,252.49,506.813,252.49z M104.395,445.524
			c-10.545,0-19.125-8.58-19.125-19.125s8.58-19.125,19.125-19.125s19.125,8.58,19.125,19.125S114.94,445.524,104.395,445.524z
			 M232.335,314.646c-10.545,0-19.125-8.58-19.125-19.125c0-10.545,8.58-19.125,19.125-19.125c10.545,0,19.125,8.58,19.125,19.125
			C251.46,306.066,242.88,314.646,232.335,314.646z M371.828,456.96c-10.545,0-19.125-8.58-19.125-19.125s8.58-19.125,19.125-19.125
			s19.125,8.58,19.125,19.125S382.373,456.96,371.828,456.96z M506.813,314.646c-10.545,0-19.125-8.58-19.125-19.125
			c0-10.545,8.58-19.125,19.125-19.125s19.125,8.58,19.125,19.125C525.938,306.066,517.357,314.646,506.813,314.646z"/>
	</g>
</g>
<g>
	<g>
		<path fill="#7EAD61" d="M177.301,244.137c-2.235-2.223-5.307-3.503-8.451-3.503c-3.155,0-6.239,1.279-8.462,3.503
			c-2.224,2.222-3.491,5.306-3.491,8.45s1.267,6.228,3.491,8.451c2.235,2.224,5.307,3.502,8.462,3.502
			c3.144,0,6.216-1.278,8.451-3.502c2.223-2.223,3.502-5.307,3.502-8.451S179.524,246.359,177.301,244.137z"/>
	</g>
</g>
<g>
	<g>
		<path fill="#7EAD61" d="M124.313,240.634H66.938c-6.602,0-11.953,5.353-11.953,11.953c0,6.601,5.352,11.953,11.953,11.953h57.375
			c6.602,0,11.953-5.353,11.953-11.953C136.266,245.987,130.914,240.634,124.313,240.634z"/>
	</g>
</g>
<g>
	<g>
		<path fill="#7EAD61" d="M124.313,298.009H66.938c-6.602,0-11.953,5.353-11.953,11.953c0,6.601,5.352,11.953,11.953,11.953h57.375
			c6.602,0,11.953-5.353,11.953-11.953C136.266,303.362,130.914,298.009,124.313,298.009z"/>
	</g>
</g>
</svg>
