<?xml version="1.0" encoding="utf-8"?>
<!-- Generator: Adobe Illustrator 16.0.0, SVG Export Plug-In . SVG Version: 6.00 Build 0)  -->
<!DOCTYPE svg PUBLIC "-//W3C//DTD SVG 1.1//EN" "http://www.w3.org/Graphics/SVG/1.1/DTD/svg11.dtd">
<svg version="1.1" id="Capa_1" xmlns="http://www.w3.org/2000/svg" xmlns:xlink="http://www.w3.org/1999/xlink" x="0px" y="0px"
	 width="512px" height="512px" viewBox="0 0 512 512" enable-background="new 0 0 512 512" xml:space="preserve">
<path id="XMLID_294_" fill="#7EAD61" d="M482,80h-24V30c0-16.542-13.458-30-30-30H84C67.458,0,54,13.458,54,30v50H30
	C13.458,80,0,93.458,0,110v287.998c0,16.542,13.458,30,30,30h176v23.998h-19.024c-16.542,0-30,13.458-30,30V502
	c0,5.523,4.477,10,10,10h178.049c5.522,0,10-4.477,10-10v-20.004c0-16.542-13.458-30-30-30H306v-23.998h176
	c16.542,0,30-13.458,30-30V110C512,93.458,498.542,80,482,80z M482,100c5.514,0,10,4.486,10,10v229.998h-34V100H482z M84,20h344
	c5.514,0,10,4.486,10,10v50H74V30C74,24.486,78.486,20,84,20z M30,100h24v74.99c0,5.523,4.477,10,10,10s10-4.477,10-10V100h364
	v239.998h-51v-32.954c0-5.522-4.477-10-10-10h-13.011c-2.287-7.874-5.425-15.444-9.383-22.637l9.204-9.204
	c3.905-3.905,3.905-10.237,0-14.143l-30.359-30.36c-3.905-3.904-10.237-3.904-14.144,0l-9.204,9.205
	c-7.191-3.958-14.763-7.096-22.637-9.382v-13.011c0-5.523-4.477-10-10-10h-42.936c-5.523,0-10,4.477-10,10v13.011
	c-7.874,2.287-15.444,5.424-22.637,9.382l-9.204-9.205c-3.905-3.904-10.237-3.904-14.143,0l-30.36,30.36
	c-3.905,3.905-3.905,10.237,0,14.143l9.205,9.204c-3.958,7.192-7.096,14.763-9.383,22.637H135c-5.523,0-10,4.478-10,10v32.954H74
	V264.99c0-5.523-4.477-10-10-10s-10,4.477-10,10v75.008H20V110C20,104.486,24.486,100,30,100L30,100z M177.045,265.773l-7.643-7.643
	l16.218-16.218l7.643,7.643c3.337,3.335,8.552,3.886,12.512,1.319c9.463-6.136,19.84-10.437,30.843-12.783
	c4.616-0.984,7.915-5.061,7.915-9.78V217.51h22.936v10.802c0,4.719,3.299,8.796,7.915,9.78c11.003,2.346,21.38,6.646,30.843,12.783
	c3.96,2.567,9.176,2.017,12.513-1.319l7.643-7.643l16.218,16.218l-7.643,7.643c-3.336,3.338-3.887,8.553-1.319,12.513
	c6.137,9.464,10.438,19.841,12.783,30.843c0.984,4.615,5.062,7.915,9.78,7.915H367v22.954h-62.343
	c0.89-3.75,1.349-7.604,1.349-11.486c0-27.574-22.434-50.006-50.006-50.006c-27.573,0-50.006,22.434-50.006,50.006
	c0,3.883,0.459,7.736,1.349,11.486H145v-22.954h10.801c4.719,0,8.796-3.299,9.78-7.915c2.346-11.003,6.647-21.38,12.783-30.843
	C180.932,274.327,180.382,269.111,177.045,265.773L177.045,265.773z M225.994,328.512c0-16.545,13.46-30.006,30.006-30.006
	s30.006,13.461,30.006,30.006c0,3.949-0.799,7.85-2.316,11.486H228.31C226.793,336.361,225.994,332.461,225.994,328.512z
	 M335.024,481.996V492H176.976v-10.004c0-5.514,4.486-10,10-10h138.049C330.539,471.996,335.024,476.482,335.024,481.996
	L335.024,481.996z M286,451.996h-60v-23.998h60V451.996z M482,407.998H30c-5.514,0-10-4.486-10-10v-38h472v38
	C492,403.512,487.514,407.998,482,407.998z"/>
<path id="XMLID_1617_" fill="#7EAD61" d="M286,60h108c5.523,0,10-4.477,10-10s-4.477-10-10-10H286c-5.523,0-10,4.477-10,10
	S280.477,60,286,60z"/>
<path id="XMLID_1618_" fill="#7EAD61" d="M162,60c2.63,0,5.21-1.07,7.07-2.93c1.86-1.86,2.93-4.44,2.93-7.07s-1.07-5.21-2.93-7.07
	C167.21,41.07,164.63,40,162,40s-5.21,1.07-7.07,2.93C153.07,44.79,152,47.37,152,50s1.07,5.21,2.93,7.07
	C156.79,58.93,159.37,60,162,60z"/>
<path id="XMLID_1620_" fill="#7EAD61" d="M118,60c2.63,0,5.21-1.07,7.07-2.93c1.86-1.86,2.93-4.44,2.93-7.07s-1.07-5.21-2.93-7.07
	C123.21,41.07,120.63,40,118,40s-5.21,1.07-7.07,2.93C109.07,44.79,108,47.37,108,50s1.07,5.21,2.93,7.07
	C112.79,58.93,115.37,60,118,60z"/>
<path id="XMLID_1623_" fill="#7EAD61" d="M206,60c2.63,0,5.21-1.07,7.07-2.93c1.86-1.86,2.93-4.44,2.93-7.07s-1.07-5.21-2.93-7.07
	C211.21,41.07,208.63,40,206,40s-5.21,1.07-7.07,2.93C197.07,44.79,196,47.37,196,50s1.07,5.21,2.93,7.07
	C200.79,58.93,203.37,60,206,60z"/>
<path id="XMLID_1624_" fill="#7EAD61" d="M112,147.998h23.798c5.523,0,10-4.477,10-10s-4.477-10-10-10H112c-5.523,0-10,4.477-10,10
	S106.477,147.998,112,147.998z"/>
<path id="XMLID_1626_" fill="#7EAD61" d="M179.798,147.998h91.738c5.522,0,10-4.477,10-10s-4.478-10-10-10h-91.738
	c-5.523,0-10,4.477-10,10S174.275,147.998,179.798,147.998z"/>
<path id="XMLID_1627_" fill="#7EAD61" d="M112,195.996h58c5.523,0,10-4.477,10-10s-4.477-10-10-10h-58c-5.523,0-10,4.477-10,10
	S106.477,195.996,112,195.996z"/>
<path id="XMLID_1628_" fill="#7EAD61" d="M315.536,147.998H400c5.523,0,10-4.477,10-10s-4.477-10-10-10h-84.464
	c-5.523,0-10,4.477-10,10S310.013,147.998,315.536,147.998z"/>
<path id="XMLID_1633_" fill="#7EAD61" d="M400,175.996h-68.439c-5.522,0-10,4.477-10,10s4.478,10,10,10H400c5.523,0,10-4.477,10-10
	S405.523,175.996,400,175.996z"/>
<path id="XMLID_1635_" fill="#7EAD61" d="M64,229.99c2.63,0,5.21-1.07,7.07-2.93c1.86-1.86,2.93-4.44,2.93-7.07
	c0-2.63-1.07-5.21-2.93-7.07c-1.86-1.86-4.44-2.93-7.07-2.93s-5.21,1.07-7.07,2.93c-1.86,1.86-2.93,4.44-2.93,7.07
	c0,2.63,1.07,5.21,2.93,7.07C58.79,228.92,61.37,229.99,64,229.99z"/>
</svg>
