<?xml version="1.0" encoding="utf-8"?>
<!-- Generator: Adobe Illustrator 16.0.0, SVG Export Plug-In . SVG Version: 6.00 Build 0)  -->
<!DOCTYPE svg PUBLIC "-//W3C//DTD SVG 1.1//EN" "http://www.w3.org/Graphics/SVG/1.1/DTD/svg11.dtd">
<svg version="1.1" id="Layer_5" xmlns="http://www.w3.org/2000/svg" xmlns:xlink="http://www.w3.org/1999/xlink" x="0px" y="0px"
	 width="496px" height="496px" viewBox="8 8 496 496" enable-background="new 8 8 496 496" xml:space="preserve">
<path fill="#7EAD61" d="M504,264c0-53.512-37.744-98.32-88-109.344V48c0-22.056-17.944-40-40-40H168c-22.056,0-40,17.944-40,40v88
	H81.752l-4.824,19.328L59.856,145.08l-42.784,42.76l10.248,17.088L8,209.752v60.496l19.328,4.824L17.072,292.16l42.776,42.768
	L76.92,324.68L81.752,344H128v120c0,22.056,17.944,40,40,40h208c22.056,0,40-17.944,40-40v-90.656
	C466.256,362.32,504,317.512,504,264z M488,264c0,15.592-3.816,30.279-10.44,43.313c-4.439-12.217-14.655-21.824-27.855-25.129
	L416,273.752v-1.912c9.968-7.512,16-19.328,16-31.832v-16c0-11.176-4.728-21.928-12.976-29.496
	c-8.24-7.544-19.408-11.336-30.576-10.352C368.008,185.928,352,204.168,352,225.656V240c0,12.504,6.032,24.32,16,31.832v1.912
	l-33.704,8.432c-13.2,3.305-23.416,12.912-27.855,25.129C299.816,294.28,296,279.592,296,264c0-52.936,43.064-96,96-96
	S488,211.064,488,264z M368,154.656c-5.504,1.208-10.832,2.872-16,4.856V136H192v112h89.279c-0.76,5.24-1.279,10.552-1.279,16
	c0,53.512,37.744,98.32,88,109.344V392H176V120h192V154.656z M284.721,232H208v-80h128v15.152
	C311.568,181.336,292.96,204.424,284.721,232z M168,24h208c13.232,0,24,10.768,24,24v24H144V48C144,34.768,154.768,24,168,24z
	 M128,276.576C122.952,278.8,117.504,280,112,280c-22.056,0-40-17.943-40-40c0-22.056,17.944-40,40-40c5.504,0,10.952,1.2,16,3.424
	V276.576z M94.248,328l-3.896-15.592l-1.624-4.28l-9.136-3.712l-17.264,10.368l-25.104-25.112L47.592,272.4l-4-9.76L24,257.752
	v-35.504l19.568-4.888l4.024-9.76l-10.368-17.272l25.104-25.112l17.264,10.368l9.76-3.968L94.248,152H128v34.44
	c-5.192-1.56-10.568-2.44-16-2.44c-30.88,0-56,25.128-56,56s25.12,56,56,56c5.432,0,10.808-0.88,16-2.439V328H94.248z M376,488H168
	c-13.232,0-24-10.768-24-24v-24h256v24C400,477.232,389.232,488,376,488z M400,424H144V88h256v64.408
	c-2.656-0.192-5.296-0.408-8-0.408s-5.344,0.216-8,0.408V104H160v304h224v-32.408c2.656,0.192,5.296,0.408,8,0.408
	s5.344-0.216,8-0.408V424z M392,360c-28.68,0-54.392-12.712-72-32.712v-6.304c0-11.032,7.48-20.608,18.176-23.289L384,286.248
	V262.96l-3.976-2.312C372.496,256.264,368,248.544,368,240v-14.344c0-13.272,9.592-24.496,21.832-25.56
	c6.864-0.552,13.368,1.608,18.384,6.208C413.16,210.84,416,217.288,416,224v16c0,8.544-4.496,16.264-12.024,20.648L400,262.96
	v23.288l45.824,11.447C456.52,300.376,464,309.952,464,320.984v6.304C446.392,347.288,420.68,360,392,360z"/>
<path fill="#7EAD61" d="M304,40h16v16h-16V40z"/>
<path fill="#7EAD61" d="M224,40h64v16h-64V40z"/>
<path fill="#7EAD61" d="M240,456h64v16h-64V456z"/>
<path fill="#7EAD61" d="M352,456h16v16h-16V456z"/>
<path fill="#7EAD61" d="M176,456h16v16h-16V456z"/>
<path fill="#7EAD61" d="M192,264h72v16h-72V264z"/>
<path fill="#7EAD61" d="M192,296h72v16h-72V296z"/>
<path fill="#7EAD61" d="M192,328h72v16h-72V328z"/>
<path fill="#7EAD61" d="M192,360h72v16h-72V360z"/>
<path fill="#7EAD61" d="M456,152c13.232,0,24-10.768,24-24c0-10.416-6.712-19.216-16-22.528V40h-16v65.472
	c-9.288,3.312-16,12.112-16,22.528C432,141.232,442.768,152,456,152z M456,120c4.408,0,8,3.584,8,8s-3.592,8-8,8s-8-3.584-8-8
	S451.592,120,456,120z"/>
<path fill="#7EAD61" d="M448,8h16v16h-16V8z"/>
<path fill="#7EAD61" d="M88,360c-13.232,0-24,10.768-24,24c0,10.416,6.712,19.216,16,22.528V472h16v-65.472
	c9.288-3.313,16-12.112,16-22.528C112,370.768,101.232,360,88,360z M88,392c-4.408,0-8-3.584-8-8s3.592-8,8-8s8,3.584,8,8
	S92.408,392,88,392z"/>
<path fill="#7EAD61" d="M80,488h16v16H80V488z"/>
</svg>
