<?xml version="1.0" encoding="utf-8"?>
<!-- Generator: Adobe Illustrator 16.0.0, SVG Export Plug-In . SVG Version: 6.00 Build 0)  -->
<!DOCTYPE svg PUBLIC "-//W3C//DTD SVG 1.1//EN" "http://www.w3.org/Graphics/SVG/1.1/DTD/svg11.dtd">
<svg version="1.1" id="Capa_1" xmlns="http://www.w3.org/2000/svg" xmlns:xlink="http://www.w3.org/1999/xlink" x="0px" y="0px"
	 width="512px" height="512px" viewBox="0 0 512 512" enable-background="new 0 0 512 512" xml:space="preserve">
<g>
	<path fill="#7EAD61" d="M256,166.498c45.9,0,83.245-37.344,83.245-83.245c0-33.877-20.238-64.103-51.56-77.002
		c-3.83-1.576-8.213,0.249-9.791,4.079c-1.576,3.83,0.25,8.213,4.08,9.791c25.679,10.575,42.271,35.356,42.271,63.132
		c0,37.63-30.615,68.245-68.245,68.245s-68.245-30.615-68.245-68.245S218.37,15.008,256,15.008c4.143,0,7.5-3.358,7.5-7.5
		c0-4.142-3.357-7.5-7.5-7.5c-45.901,0-83.245,37.344-83.245,83.245S210.099,166.498,256,166.498L256,166.498z M229.361,86.036
		c-2.929-2.929-7.678-2.929-10.606,0c-2.929,2.929-2.929,7.678,0,10.606l15.091,15.091c2.827,2.827,6.539,4.24,10.252,4.24
		c3.713,0,7.427-1.414,10.253-4.24l38.894-38.894c2.929-2.929,2.929-7.678,0-10.606c-2.929-2.929-7.679-2.929-10.606,0
		l-38.54,38.541L229.361,86.036z M509.806,235.118c-2.927-2.93-7.676-2.933-10.606-0.005l-28.343,28.313l-116.141-118.47
		L487.032,12.815c2.931-2.927,2.934-7.676,0.007-10.606c-2.927-2.931-7.676-2.935-10.606-0.007l-162.484,162.27
		c-7.68,7.67-11.583,17.963-10.914,28.817h-10.022c-15.113,0-29.562,6.454-39.64,17.708l-1.449,1.619
		c-13.819-6.918-29.013-10.805-44.466-11.355c3.638-13.06-0.147-27.356-9.872-36.821L33.486,2.787
		c-2.952-2.908-7.701-2.871-10.606,0.08c-2.907,2.951-2.872,7.699,0.08,10.606l140.128,138.039L62.064,254.56
		c-2.9,2.958-2.853,7.708,0.105,10.606c2.957,2.898,7.705,2.854,10.606-0.105l100.998-103.022l13.303,13.105
		c4.323,4.23,6.721,9.889,6.752,15.933c0.031,6.044-2.308,11.728-6.587,16.002l-85.34,85.254c-8.773,8.766-23.05,8.766-31.825,0
		L12.8,235.113c-2.93-2.927-7.679-2.925-10.607,0.005c-2.927,2.931-2.925,7.679,0.005,10.607l57.276,57.218
		c7.311,7.304,16.911,10.953,26.514,10.953c3.477,0,6.952-0.485,10.321-1.443c0.188,5.086,0.74,10.154,1.644,15.178
		c-3.399,1.561-6.583,3.736-9.379,6.53L72.11,350.607c-6.141,6.135-9.522,14.289-9.522,22.965c0,8.678,3.381,16.832,9.522,22.967
		c7.074,7.057,16.591,10.217,25.975,9.354c-0.89,9.61,2.516,19.123,9.38,25.967c6.335,6.328,14.656,9.492,22.978,9.492
		c1,0,2-0.048,2.996-0.14c-0.89,9.61,2.524,19.116,9.381,25.966c7.068,7.061,16.591,10.215,25.974,9.354
		c-0.89,9.609,2.516,19.123,9.381,25.967c6.335,6.329,14.656,9.493,22.978,9.493c8.321,0,16.643-3.164,22.979-9.493l10.832-10.821
		l10.832,10.821c6.335,6.329,14.656,9.493,22.978,9.493c8.322,0,16.645-3.165,22.979-9.494c6.845-6.838,10.255-16.373,9.381-25.966
		c9.418,0.867,18.882-2.27,25.975-9.354c6.845-6.837,10.255-16.373,9.381-25.966c9.417,0.866,18.882-2.268,25.975-9.354
		c6.844-6.837,10.254-16.373,9.38-25.967c9.417,0.866,18.882-2.271,25.975-9.354c6.141-6.135,9.521-14.289,9.521-22.965
		c0-8.678-3.381-16.832-9.521-22.967l-9.081-9.071c6.411-4.892,12.272-10.45,17.48-16.618c3.335-3.95,6.397-8.156,9.158-12.55
		c3.465,1.017,7.049,1.526,10.633,1.526c9.603,0,19.204-3.65,26.515-10.953l57.275-57.217
		C512.731,242.797,512.733,238.049,509.806,235.118L509.806,235.118z M107.466,385.928c-6.824,6.819-17.928,6.818-24.753,0
		c-3.303-3.301-5.123-7.688-5.123-12.354s1.819-9.053,5.123-12.354l16.464-16.447c3.412-3.409,7.894-5.113,12.376-5.113
		c4.482,0,8.965,1.704,12.377,5.113c3.303,3.301,5.123,7.688,5.123,12.354s-1.819,9.053-5.123,12.354L107.466,385.928z
		 M118.067,421.248c-3.303-3.301-5.122-7.688-5.122-12.354s1.819-9.054,5.123-12.354l16.464-16.447
		c6.825-6.815,17.93-6.815,24.755,0c3.303,3.302,5.123,7.688,5.123,12.354s-1.819,9.053-5.123,12.354l-16.464,16.448
		C135.997,428.065,124.892,428.065,118.067,421.248z M153.422,456.567c-3.303-3.302-5.123-7.688-5.123-12.354
		s1.819-9.053,5.123-12.354l16.464-16.448c3.413-3.409,7.895-5.113,12.377-5.113s8.965,1.705,12.377,5.113
		c3.304,3.301,5.123,7.688,5.123,12.354s-1.819,9.055-5.123,12.354l-16.464,16.447C171.352,463.384,160.248,463.384,153.422,456.567
		z M229.997,475.44l-16.464,16.447c-6.825,6.816-17.93,6.816-24.755,0v-0.001c-3.303-3.301-5.123-7.688-5.123-12.354
		s1.819-9.053,5.123-12.354l16.464-16.446c3.412-3.409,7.895-5.113,12.377-5.113s8.965,1.704,12.377,5.113
		c3.304,3.301,5.123,7.688,5.123,12.354S233.3,472.139,229.997,475.44z M392.342,373.574c0,4.666-1.818,9.053-5.123,12.354
		c-6.824,6.818-17.929,6.819-24.753,0l-53.74-53.686c-2.93-2.928-7.679-2.926-10.606,0.005s-2.926,7.68,0.005,10.606l53.74,53.686
		c3.303,3.301,5.123,7.688,5.123,12.354s-1.819,9.055-5.123,12.354c-6.823,6.815-17.925,6.816-24.75,0.003
		c-0.001-0.001-0.002-0.002-0.003-0.003l-53.74-53.687c-2.93-2.929-7.68-2.926-10.607,0.004c-2.927,2.932-2.925,7.681,0.006,10.606
		l53.74,53.688c3.304,3.301,5.123,7.688,5.123,12.354c0,4.667-1.818,9.054-5.123,12.354c-6.826,6.816-17.931,6.816-24.754,0
		l-53.74-53.687c-2.93-2.928-7.679-2.925-10.607,0.005c-2.927,2.932-2.925,7.681,0.005,10.606l53.741,53.686
		c3.303,3.301,5.122,7.688,5.122,12.354c0,4.667-1.818,9.055-5.122,12.354c-6.826,6.817-17.931,6.816-24.754,0l-11.366-11.354
		c3.307-5.165,5.087-11.168,5.086-17.448c0-8.676-3.381-16.831-9.521-22.965c-7.096-7.09-16.685-10.207-25.974-9.355
		c0.09-0.991,0.141-1.99,0.141-2.999c0-8.676-3.381-16.832-9.522-22.966c-7.096-7.089-16.685-10.205-25.974-9.353
		c0.09-0.992,0.141-1.992,0.141-3c0-8.678-3.381-16.832-9.522-22.967c-7.096-7.088-16.685-10.205-25.974-9.353
		c0.09-0.992,0.141-1.992,0.141-3c0-8.677-3.381-16.832-9.521-22.966c-6.053-6.049-13.92-9.199-21.867-9.469
		c-1.208-6.822-1.65-13.737-1.317-20.653c0.39-0.358,0.777-0.72,1.155-1.097l85.34-85.253c0.451-0.45,0.888-0.91,1.313-1.378
		c14.538-0.711,29.088,2.057,42.328,7.961l-47.423,52.95c-8.244,9.207-7.854,23.26,0.889,31.992
		c16.592,16.576,43.587,16.576,60.178,0l34.716-34.681c2.924-2.92,7.68-2.92,10.602,0l71.376,71.305l15.397,15.382
		C390.522,364.521,392.342,368.907,392.342,373.574L392.342,373.574z M394.76,315.241c-4.938,5.849-10.551,11.075-16.734,15.592
		l-66.979-66.912c-8.769-8.758-23.035-8.759-31.804,0.001l-34.716,34.682c-10.745,10.732-28.229,10.734-38.975,0
		c-3.108-3.105-3.247-8.102-0.316-11.373l59.311-66.226c7.237-8.081,17.612-12.715,28.466-12.715h14.174
		c1.748,3.344,4.01,6.441,6.756,9.185l85.555,85.468c0.832,0.83,1.697,1.607,2.585,2.345
		C399.847,308.758,397.413,312.1,394.76,315.241L394.76,315.241z M441.923,292.331c-8.772,8.767-23.05,8.767-31.825,0
		l-85.555-85.469c-4.249-4.245-6.588-9.888-6.587-15.889s2.341-11.644,6.591-15.887l19.555-19.529l116.143,118.47L441.923,292.331z"
		/>
</g>
</svg>
