<?xml version="1.0" encoding="utf-8"?>
<!-- Generator: Adobe Illustrator 24.1.1, SVG Export Plug-In . SVG Version: 6.00 Build 0)  -->
<svg version="1.1" id="Capa_1" xmlns="http://www.w3.org/2000/svg" xmlns:xlink="http://www.w3.org/1999/xlink" x="0px" y="0px"
	 viewBox="0 0 512 512" style="enable-background:new 0 0 512 512;" xml:space="preserve">
<style type="text/css">
	.st0{fill:#7EAC61;}
</style>
<g>
	<g>
		<path class="st0" d="M458,121.1H64c-7.2,0-13-4.1-13-9.1V67.1c0-5,5.8-9.1,13-9.1h394c7.2,0,13,4.1,13,9.1V112
			C471,117,465.2,121.1,458,121.1z M77,102.9h368V76.2H77V102.9z"/>
		<rect x="77" y="69.5" class="st0" width="368" height="16.8"/>
	</g>
	<g>
		<path class="st0" d="M64,373.5h394c7.2,0,13,4.1,13,9.1v44.9c0,5-5.8,9.1-13,9.1H64c-7.2,0-13-4.1-13-9.1v-44.9
			C51,377.6,56.8,373.5,64,373.5z M445,391.7H77v26.6h368V391.7z"/>
		
			<rect x="77" y="408.3" transform="matrix(-1 -1.224647e-16 1.224647e-16 -1 522 833.4584)" class="st0" width="368" height="16.8"/>
	</g>
	<g>
		<g>
			<path class="st0" d="M110.5,297.3c-27.2,0-49.3-22.1-49.3-49.3s22.1-49.3,49.3-49.3s49.3,22.1,49.3,49.3
				C159.8,275.2,137.7,297.3,110.5,297.3z M110.5,221.7c-14.5,0-26.3,11.8-26.3,26.3s11.8,26.3,26.3,26.3
				c14.5,0,26.3-11.8,26.3-26.3C136.8,233.5,125,221.7,110.5,221.7z"/>
			<path class="st0" d="M255.6,297.3c-27.2,0-49.3-22.1-49.3-49.3s22.1-49.3,49.3-49.3c27.2,0,49.3,22.1,49.3,49.3
				c0,6.4-5.2,11.5-11.5,11.5s-11.5-5.2-11.5-11.5c0-14.5-11.8-26.3-26.3-26.3c-14.5,0-26.3,11.8-26.3,26.3s11.8,26.3,26.3,26.3
				c6.4,0,11.5,5.2,11.5,11.5S261.9,297.3,255.6,297.3z"/>
		</g>
		<path class="st0" d="M400.7,297.3c-27.2,0-49.3-22.1-49.3-49.3s22.1-49.3,49.3-49.3s49.3,22.1,49.3,49.3
			C449.9,275.2,427.8,297.3,400.7,297.3z M400.7,221.7c-14.5,0-26.3,11.8-26.3,26.3s11.8,26.3,26.3,26.3c14.5,0,26.3-11.8,26.3-26.3
			S415.1,221.7,400.7,221.7z"/>
	</g>
</g>
</svg>
