<?xml version="1.0" encoding="utf-8"?>
<!-- Generator: Adobe Illustrator 16.0.0, SVG Export Plug-In . SVG Version: 6.00 Build 0)  -->
<!DOCTYPE svg PUBLIC "-//W3C//DTD SVG 1.1//EN" "http://www.w3.org/Graphics/SVG/1.1/DTD/svg11.dtd">
<svg version="1.1" id="Capa_1" xmlns="http://www.w3.org/2000/svg" xmlns:xlink="http://www.w3.org/1999/xlink" x="0px" y="0px"
	 width="612px" height="612px" viewBox="0 90 612 612" enable-background="new 0 90 612 612" xml:space="preserve">
<g>
	<g>
		<path fill="#7EAD61" d="M83.824,631.592l-0.11-0.084c-5.24-4.013-12.742-3.021-16.758,2.221c-4.014,5.24-3.02,12.743,2.22,16.758
			l0.11,0.084c2.168,1.662,4.724,2.465,7.26,2.465c3.592,0,7.145-1.613,9.497-4.686C90.059,643.108,89.064,635.606,83.824,631.592z"
			/>
	</g>
</g>
<g>
	<g>
		<path fill="#7EAD61" d="M83.824,533.576l-0.11-0.084c-5.24-4.013-12.742-3.021-16.758,2.221c-4.014,5.24-3.02,12.743,2.22,16.758
			l0.11,0.084c2.168,1.662,4.724,2.465,7.26,2.465c3.592,0,7.145-1.613,9.497-4.686C90.059,545.093,89.064,537.591,83.824,533.576z"
			/>
	</g>
</g>
<g>
	<g>
		<path fill="#7EAD61" d="M83.824,435.561l-0.11-0.084c-5.24-4.013-12.742-3.021-16.758,2.221c-4.014,5.24-3.02,12.743,2.22,16.758
			l0.11,0.084c2.168,1.662,4.724,2.465,7.26,2.465c3.592,0,7.145-1.613,9.497-4.686C90.059,447.077,89.064,439.575,83.824,435.561z"
			/>
	</g>
</g>
<g>
	<g>
		<path fill="#7EAD61" d="M542.72,631.555l-0.111-0.084c-5.262-3.987-12.759-2.955-16.746,2.307
			c-3.987,5.261-2.955,12.759,2.307,16.746l0.111,0.084c2.16,1.637,4.695,2.428,7.21,2.428c3.613,0,7.186-1.632,9.536-4.733
			C549.015,643.04,547.98,635.542,542.72,631.555z"/>
	</g>
</g>
<g>
	<g>
		<path fill="#7EAD61" d="M542.72,533.54l-0.111-0.084c-5.262-3.987-12.759-2.955-16.746,2.307
			c-3.986,5.26-2.954,12.758,2.307,16.745l0.111,0.084c2.16,1.637,4.695,2.428,7.21,2.428c3.613,0,7.186-1.632,9.536-4.733
			C549.015,545.025,547.981,537.527,542.72,533.54z"/>
	</g>
</g>
<g>
	<g>
		<path fill="#7EAD61" d="M542.72,435.524l-0.111-0.084c-5.262-3.987-12.759-2.955-16.746,2.307s-2.954,12.758,2.307,16.745
			l0.111,0.084c2.16,1.637,4.695,2.428,7.21,2.428c3.613,0,7.186-1.632,9.536-4.733C549.015,447.01,547.981,439.512,542.72,435.524z
			"/>
	</g>
</g>
<g>
	<g>
		<path fill="#7EAD61" d="M441.635,482.063h-0.155c-6.601,0-11.953,5.352-11.953,11.953s5.351,11.953,11.953,11.953h0.155
			c6.601,0,11.953-5.352,11.953-11.953S448.235,482.063,441.635,482.063z"/>
	</g>
</g>
<g>
	<g>
		<path fill="#7EAD61" d="M170.521,580.078h-0.155c-6.601,0-11.953,5.352-11.953,11.953s5.353,11.953,11.953,11.953h0.155
			c6.601,0,11.953-5.352,11.953-11.953S177.123,580.078,170.521,580.078z"/>
	</g>
</g>
<g>
	<g>
		<path fill="#7EAD61" d="M96.569,311.36c-2.223-2.223-5.307-3.502-8.451-3.502c-3.144,0-6.228,1.279-8.451,3.502
			c-2.222,2.223-3.502,5.307-3.502,8.463c0,3.144,1.279,6.216,3.502,8.439c2.223,2.235,5.296,3.502,8.451,3.502
			c3.144,0,6.228-1.267,8.451-3.502c2.222-2.223,3.502-5.295,3.502-8.439C100.072,316.667,98.792,313.595,96.569,311.36z"/>
	</g>
</g>
<g>
	<g>
		<path fill="#7EAD61" d="M600.047,384.047H550.4c21.363-12.288,35.789-35.329,35.789-61.691c0-27.368-15.527-51.729-39.183-63.583
			c4.081-9.072,6.198-18.925,6.198-29.103c0-39.223-31.91-71.135-71.135-71.135c-12.366,0-24.243,3.12-34.827,9.091
			c-13.888-9.788-30.494-15.093-47.639-15.093c-1.162,0-2.316,0.041-3.469,0.088c-12.628-36.813-47.842-62.563-87.503-62.563
			c-35.763,0-68.125,20.713-83.373,52.453c-2.86-0.266-5.734-0.399-8.605-0.399c-37.587,0-70.969,22.698-85.222,56.543
			c-2.529-0.772-5.103-1.446-7.715-2.031c1.37-15.277,6.216-26.989,14.484-34.864c7.202-6.86,14.436-8.281,14.74-8.338l-0.166,0.027
			l-0.002-0.013c2.527-0.372,4.919-1.537,6.734-3.361c2.222-2.224,3.502-5.295,3.502-8.439c0-3.156-1.279-6.228-3.502-8.463
			c-2.223-2.223-5.307-3.502-8.451-3.502c-0.67,0-1.336,0.071-1.994,0.183l-0.004-0.021c-7.098,1.118-16.805,5.096-25.758,13.178
			v-41.058c0-6.602-5.353-11.953-11.953-11.953H82.662c-6.6,0-11.953,5.352-11.953,11.953v44.694
			c-13.75-16.853-28.595-26.705-29.746-27.456c-5.521-3.602-12.906-2.045-16.517,3.467c-3.612,5.514-2.069,12.919,3.437,16.542
			c0.396,0.259,36.56,24.477,41.933,59.314C29.366,210.665,0,246.214,0,288.08c0,17.394,9.92,59.161,19.656,95.967h-7.703
			C5.353,384.047,0,389.398,0,396v294.047C0,696.648,5.353,702,11.953,702h588.094c6.601,0,11.953-5.352,11.953-11.953V396
			C612,389.398,606.647,384.047,600.047,384.047z M216.655,166.017c4.598,0,9.203,0.46,13.688,1.369
			c5.838,1.181,11.653-2.112,13.64-7.728c9.674-27.331,35.654-45.694,64.649-45.694c28.258,0,53.476,17.618,63.711,43.201
			c-32.287,11.297-55.517,42.049-55.517,78.143c0,6.602,5.353,11.953,11.953,11.953s11.953-5.352,11.953-11.953
			c0-32.461,26.409-58.869,58.87-58.869c14.396,0,28.259,5.263,39.033,14.82c4.249,3.769,10.566,4.026,15.108,0.617
			c8.221-6.173,18.015-9.435,28.323-9.435c26.041,0,47.228,21.187,47.228,47.229c0,10.238-3.221,19.978-9.318,28.166
			c-2.384,3.202-3.012,7.385-1.672,11.146s4.467,6.606,8.34,7.583c20.982,5.291,35.637,24.12,35.637,45.791
			c0,26.041-21.187,47.228-47.228,47.228c-2.967,0-5.979-0.289-8.954-0.859c-5.794-1.114-11.53,2.171-13.513,7.727
			c-0.936,2.626-2.12,5.168-3.513,7.596h-15.09l48.947-70.165c1.84-2.637,2.539-5.905,1.939-9.064
			c-0.599-3.159-2.445-5.944-5.121-7.725l-34.85-23.191c-2.715-1.808-6.052-2.428-9.232-1.714c-3.183,0.712-5.937,2.693-7.622,5.485
			l-17.426,28.855l14.265-72.16c1.271-6.441-2.888-12.704-9.318-14.025l-30.415-6.255c-3.143-0.648-6.415-0.002-9.078,1.789
			c-2.663,1.791-4.495,4.577-5.082,7.731l-3.902,20.96h-27.895c-6.601,0-11.953,5.351-11.953,11.953v68.783
			c-7.944-40.675-43.836-71.472-86.8-71.472c-19.36,0-37.749,6.143-53.176,17.765c-12.722,9.583-22.713,22.626-28.726,37.29
			c1.523-8.977,2.273-15.862,2.273-20.803c0-16.209-4.402-31.475-12.144-44.803c6.28-17.087,22.607-28.694,41.074-28.694
			c2.935,0,5.875,0.295,8.742,0.876c5.841,1.188,11.665-2.114,13.648-7.736c2.565-7.265,7.028-13.764,12.909-18.794
			c5.016-4.292,5.604-11.837,1.313-16.854c-4.29-5.017-11.834-5.604-16.854-1.313c-6.567,5.618-11.989,12.429-15.985,20.02
			c-1.256-0.07-2.515-0.105-3.771-0.105c-23.792,0-45.283,12.455-57.409,31.881c-5.678-5.466-12.051-10.29-18.995-14.341
			C163.837,182.97,188.675,166.017,216.655,166.017z M437.032,375.267l45.023-74.545l14.28,9.504l-51.497,73.821h-9.542
			L437.032,375.267z M422.08,327.625v-33.19c0.063-0.251,0.133-0.5,0.181-0.758l10.004-53.722l6.867,1.413L422.08,327.625z
			 M391.063,363.312c0.051-0.453,0.086-0.912,0.086-1.378v-93.463h7.027v115.576h-3.772c0.032-0.748,0.05-1.498,0.05-2.25
			C394.453,375.282,393.243,369.052,391.063,363.312z M227.109,307.547c-0.354,0-0.702,0.022-1.056,0.026
			c11.687-18.145,32.165-29.839,54.387-29.839c31.583,0,57.923,22.808,63.459,52.814c-16.539,0.117-31.196,8.44-40.266,21.174
			C288.308,325.339,259.757,307.547,227.109,307.547z M290.529,384.047H165.571h-1.88c5.624-29.897,31.914-52.594,63.419-52.594
			C258.617,331.453,284.905,354.15,290.529,384.047z M344.25,354.446c14.5,0,26.297,12.27,26.297,27.351
			c0,0.754-0.036,1.503-0.095,2.25h-52.406c-0.058-0.746-0.094-1.495-0.094-2.25C317.953,366.716,329.75,354.446,344.25,354.446z
			 M94.615,113.906h4.781v80.154c-1.603,0.015-3.197,0.059-4.781,0.143V113.906z M24.62,278.632
			c0.746,0.146,1.516,0.227,2.304,0.227h59.094c6.601,0,11.953-5.352,11.953-11.953s-5.353-11.953-11.953-11.953h-53.02
			c12.921-22.012,38.287-37.01,67.409-37.01c42.183,0,76.5,31.463,76.5,70.137c0,3.119-0.499,8.873-2.398,19.467h-47.477
			c-6.601,0-11.953,5.352-11.953,11.953s5.353,11.953,11.953,11.953h39.692c-14.503,13.578-24.435,31.963-27.237,52.594H44.395
			c-13.059-48.752-20.489-83.49-20.489-95.967C23.906,284.875,24.163,281.726,24.62,278.632z M588.094,482.063H482.906
			c-6.601,0-11.953,5.352-11.953,11.953s5.353,11.953,11.953,11.953h105.188v74.109H211.1c-6.601,0-11.953,5.352-11.953,11.953
			s5.353,11.953,11.953,11.953h376.994v74.109H23.906v-74.109h105.188c6.601,0,11.953-5.352,11.953-11.953
			s-5.353-11.953-11.953-11.953H23.906v-74.109H400.9c6.601,0,11.953-5.352,11.953-11.953s-5.353-11.953-11.953-11.953H23.906
			v-74.109h11.335h552.853V482.063z"/>
	</g>
</g>
<g>
	<g>
		<path fill="#7EAD61" d="M293.407,154.547h-0.158c-6.601,0-11.953,5.352-11.953,11.953s5.353,11.953,11.953,11.953h0.158
			c6.601,0,11.953-5.352,11.953-11.953S300.008,154.547,293.407,154.547z"/>
	</g>
</g>
</svg>
