<?xml version="1.0" encoding="utf-8"?>
<!-- Generator: Adobe Illustrator 16.0.0, SVG Export Plug-In . SVG Version: 6.00 Build 0)  -->
<!DOCTYPE svg PUBLIC "-//W3C//DTD SVG 1.1//EN" "http://www.w3.org/Graphics/SVG/1.1/DTD/svg11.dtd">
<svg version="1.1" id="Layer_1" xmlns="http://www.w3.org/2000/svg" xmlns:xlink="http://www.w3.org/1999/xlink" x="0px" y="0px"
	 width="612px" height="612px" viewBox="0 90 612 612" enable-background="new 0 90 612 612" xml:space="preserve">
<g>
	<g>
		<g>
			<path fill="#7EAD61" d="M438.6,661.2H153c-5.63,0-10.2,4.57-10.2,10.2v20.4c0,5.63,4.57,10.199,10.2,10.199
				s10.2-4.569,10.2-10.199v-10.2h275.4c5.63,0,10.199-4.569,10.199-10.199S444.23,661.2,438.6,661.2z"/>
			<path fill="#7EAD61" d="M224.399,345c0,5.63,4.57,10.2,10.2,10.2H275.4c5.63,0,10.2-4.57,10.2-10.2v-61.2
				c0-5.63-4.57-10.2-10.2-10.2h-40.799c-5.63,0-10.2,4.57-10.2,10.2V345H224.399z M244.8,294h20.4V334.8h-20.4V294z"/>
			<path fill="#7EAD61" d="M132.6,212.4H10.2c-5.63,0-10.2,4.57-10.2,10.2v204c0,5.63,4.57,10.2,10.2,10.2s10.2-4.57,10.2-10.2
				V232.8h112.2c5.63,0,10.2-4.57,10.2-10.2S138.23,212.4,132.6,212.4z"/>
			<path fill="#7EAD61" d="M489.6,589.8c0,5.63,4.57,10.199,10.2,10.199h40.8c5.63,0,10.199-4.569,10.199-10.199v-61.2
				c0-5.63-4.569-10.199-10.199-10.199h-40.8c-5.63,0-10.2,4.569-10.2,10.199V589.8z M510,538.801h20.4V579.6H510V538.801z"/>
			<path fill="#7EAD61" d="M51,457.2c-50.419,0-51,131.273-51,132.6c0,24.633,17.554,45.227,40.8,49.97v52.031
				c0,5.63,4.569,10.199,10.199,10.199s10.2-4.569,10.2-10.199V639.77c23.245-4.743,40.8-25.337,40.8-49.97
				C102,588.474,101.418,457.2,51,457.2z M51,620.399c-16.871,0-30.6-13.729-30.6-30.6c0-50.816,13.648-112.2,30.6-112.2
				c16.952,0,30.6,61.384,30.6,112.2C81.601,606.67,67.871,620.399,51,620.399z"/>
			<path fill="#7EAD61" d="M112.2,396H71.399c-5.63,0-10.199,4.569-10.199,10.199v20.4c0,5.63,4.569,10.2,10.199,10.2
				s10.2-4.57,10.2-10.2V416.4H102v51c0,5.63,4.57,10.2,10.2,10.2s10.2-4.57,10.2-10.2v-61.199C122.4,400.569,117.83,396,112.2,396z
				"/>
			<path fill="#7EAD61" d="M499.8,355.2h40.8c5.63,0,10.199-4.569,10.199-10.199v-61.2c0-5.63-4.569-10.2-10.199-10.2h-40.8
				c-5.63,0-10.2,4.57-10.2,10.2v61.2C489.6,350.631,494.17,355.2,499.8,355.2z M510,294h20.4V334.8H510V294z"/>
			<path fill="#7EAD61" d="M112.2,273.6H71.399c-5.63,0-10.199,4.57-10.199,10.2V345c0,5.63,4.569,10.2,10.199,10.2h40.8
				c5.63,0,10.2-4.57,10.2-10.2v-61.2C122.4,278.17,117.83,273.6,112.2,273.6z M102,334.8H81.601V294h20.4V334.8H102z"/>
			<path fill="#7EAD61" d="M326.4,345c0,5.63,4.569,10.2,10.199,10.2h40.8c5.63,0,10.2-4.57,10.2-10.2v-61.2
				c0-5.63-4.57-10.2-10.2-10.2h-40.8c-5.63,0-10.199,4.57-10.199,10.2V345L326.4,345z M346.8,294h20.4V334.8h-20.4V294L346.8,294z"
				/>
			<path fill="#7EAD61" d="M601.801,212.4H479.4c-5.63,0-10.199,4.57-10.199,10.2s4.569,10.2,10.199,10.2h112.2v409.877
				c-3.202-1.143-6.599-1.877-10.199-1.877c-1.765,0-3.52,0.153-5.243,0.459c-7.037-12.679-20.43-20.859-35.557-20.859
				s-28.519,8.181-35.557,20.859c-1.724-0.306-3.479-0.459-5.243-0.459c-16.87,0-30.6,13.729-30.6,30.601
				c0,16.87,13.729,30.6,30.6,30.6H581.4c16.87,0,30.6-13.729,30.6-30.6V222.6C612,216.97,607.431,212.4,601.801,212.4z
				 M581.4,681.6H499.8c-5.62,0-10.2-4.579-10.2-10.199c0-5.621,4.58-10.2,10.2-10.2c1.958,0,3.814,0.561,5.528,1.663
				c2.795,1.795,6.283,2.121,9.364,0.877c3.08-1.244,5.354-3.917,6.1-7.15c2.152-9.292,10.302-15.79,19.809-15.79
				c9.506,0,17.655,6.498,19.809,15.79c0.744,3.233,3.02,5.906,6.1,7.15c3.07,1.244,6.568,0.918,9.364-0.877
				c6.64-4.284,15.728,0.958,15.728,8.537C591.6,677.021,587.021,681.6,581.4,681.6z"/>
			<path fill="#7EAD61" d="M336.6,232.8h40.8c5.63,0,10.2-4.57,10.2-10.2v-61.2c0-5.63-4.57-10.2-10.2-10.2h-40.8
				c-5.63,0-10.199,4.57-10.199,10.2v61.2C326.4,228.23,330.97,232.8,336.6,232.8z M346.8,171.601h20.4V212.4h-20.4V171.601
				L346.8,171.601z"/>
			<path fill="#7EAD61" d="M326.4,467.399c0,5.63,4.569,10.2,10.199,10.2h40.8c5.63,0,10.2-4.57,10.2-10.2v-61.2
				c0-5.63-4.57-10.199-10.2-10.199h-40.8c-5.63,0-10.199,4.569-10.199,10.199V467.399L326.4,467.399z M346.8,416.4h20.4v40.8h-20.4
				V416.4L346.8,416.4z"/>
			<path fill="#7EAD61" d="M234.601,232.8H275.4c5.63,0,10.2-4.57,10.2-10.2v-61.2c0-5.63-4.57-10.2-10.2-10.2h-40.799
				c-5.63,0-10.2,4.57-10.2,10.2v61.2C224.399,228.23,228.969,232.8,234.601,232.8z M244.8,171.601h20.4V212.4h-20.4V171.601z"/>
			<path fill="#7EAD61" d="M298.758,582.559c-1.836,1.938-2.958,4.59-2.958,7.242s1.122,5.304,2.958,7.242
				c1.938,1.836,4.59,2.959,7.242,2.959s5.304-1.123,7.242-2.959c1.836-1.938,2.959-4.59,2.959-7.242s-1.123-5.304-2.959-7.242
				C309.366,578.783,302.634,578.783,298.758,582.559z"/>
			<path fill="#7EAD61" d="M224.399,467.399c0,5.63,4.57,10.2,10.2,10.2H275.4c5.63,0,10.2-4.57,10.2-10.2v-61.2
				c0-5.63-4.57-10.199-10.2-10.199h-40.799c-5.63,0-10.2,4.569-10.2,10.199v61.2H224.399z M244.8,416.4h20.4v40.8h-20.4V416.4z"/>
			<path fill="#7EAD61" d="M204,528.6c0,5.63,4.57,10.199,10.2,10.199h30.6V630.6c0,5.63,4.57,10.199,10.2,10.199
				s10.2-4.569,10.2-10.199v-91.801H346.8V630.6c0,5.63,4.569,10.199,10.199,10.199s10.2-4.569,10.2-10.199v-91.801h30.6
				c5.63,0,10.199-4.569,10.199-10.199s-4.569-10.199-10.199-10.199H214.2C208.57,518.4,204,522.97,204,528.6z"/>
			<path fill="#7EAD61" d="M489.6,467.399c0,5.63,4.57,10.2,10.2,10.2h40.8c5.63,0,10.199-4.57,10.199-10.2v-61.2
				c0-5.63-4.569-10.199-10.199-10.199h-40.8c-5.63,0-10.2,4.569-10.2,10.199V467.399z M510,416.4h20.4v40.8H510V416.4z"/>
			<path fill="#7EAD61" d="M438.6,90H173.4c-5.63,0-10.2,4.57-10.2,10.2v530.4c0,5.63,4.57,10.199,10.2,10.199
				s10.2-4.569,10.2-10.199v-520.2h244.8v520.2c0,5.63,4.569,10.199,10.199,10.199s10.199-4.569,10.199-10.199V100.2
				C448.801,94.57,444.23,90,438.6,90z"/>
		</g>
	</g>
</g>
</svg>
