<?xml version="1.0" encoding="utf-8"?>
<!-- Generator: Adobe Illustrator 16.0.0, SVG Export Plug-In . SVG Version: 6.00 Build 0)  -->
<!DOCTYPE svg PUBLIC "-//W3C//DTD SVG 1.1//EN" "http://www.w3.org/Graphics/SVG/1.1/DTD/svg11.dtd">
<svg version="1.1" id="Layer_1" xmlns="http://www.w3.org/2000/svg" xmlns:xlink="http://www.w3.org/1999/xlink" x="0px" y="0px"
	 width="463.912px" height="176.483px" viewBox="72.5 305.5 463.912 176.483" enable-background="new 72.5 305.5 463.912 176.483"
	 xml:space="preserve">
<path fill="#FFFFFF" d="M525.712,461.87c0,6.627-5.396,12-12.055,12H98.532c-6.658,0-12.055-5.373-12.055-12V340.797
	c0-6.627,5.397-12,12.055-12h415.125c6.658,0,12.055,5.373,12.055,12V461.87z"/>
<g>
	<g>
		<g>
			
				<linearGradient id="SVGID_1_" gradientUnits="userSpaceOnUse" x1="63.2656" y1="691.8184" x2="390.5588" y2="685.7734" gradientTransform="matrix(1.4539 0 0 -1.4539 -0.2273 1401.5159)">
				<stop  offset="0" style="stop-color:#F18447"/>
				<stop  offset="0.367" style="stop-color:#CE3359"/>
				<stop  offset="0.642" style="stop-color:#14438E"/>
				<stop  offset="0.9973" style="stop-color:#007ECC"/>
			</linearGradient>
			<path fill="url(#SVGID_1_)" d="M332.999,372.476l-9.916,16.676c11.166,5.946,17.941,9.406,22.128,11.776
				c2.021,1.148,3.693,2.254,3.693,3.358c0,1.105-1.41,1.541-4.071,1.541c-8.534,0-26.082,0-26.082,0l-0.103,21.722
				c0,0,8.36,0,19.715,0c17.359,0,23.146-7.953,23.146-23.858C361.51,390.999,355.068,384.572,332.999,372.476z"/>
			
				<linearGradient id="SVGID_2_" gradientUnits="userSpaceOnUse" x1="63.1147" y1="683.6357" x2="390.4078" y2="677.5908" gradientTransform="matrix(1.4539 0 0 -1.4539 -0.2273 1401.5159)">
				<stop  offset="0" style="stop-color:#F18447"/>
				<stop  offset="0.367" style="stop-color:#CE3359"/>
				<stop  offset="0.642" style="stop-color:#14438E"/>
				<stop  offset="0.9973" style="stop-color:#007ECC"/>
			</linearGradient>
			<path fill="url(#SVGID_2_)" d="M490.077,383.046c0,0,0,8.636,0,12.212c0,7.372-0.597,10.57-7.764,10.57h-11.137
				c4.55-4.652,5.132-9.014,5.132-13.957c0-11.34-6.499-16.574-20.747-16.574c-11.151,0-17.811,0-24.047,0l-3.592,21.808
				c0.975,1.644,3.78,5.133,6.979,8.724h-10.09h-14.829c0-17.926-7.474-25.312-20.369-25.312c-15.033,0-21.431,13.187-21.431,26.272
				c0,11.34,2.021,20.369,14.539,20.369h15.717c0,3.431-0.8,6.033-5.249,6.033c-6.499,0-21.154,0-21.154,0v18.596
				c0,0,11.166,0,18.727,0c14.83,0,18.145-8.941,18.145-24.629h17.737c9.887,0,18.421-0.975,25.894-6.979
				c6.688,6.209,13.667,6.979,25.211,6.979h8.621c13.304,0,17.65-5.889,17.65-22.564c0-4.551,0-21.547,0-21.547H490.077
				L490.077,383.046z M382.532,406.308c-2.312,0-3.475-1.715-3.475-3.169c0-2.719,2.442-3.911,4.638-3.911c2.646,0,8.971,0,9.669,0
				c4.623,0,5.089,1.498,5.089,7.08H382.532z M454.588,405.247c-2.807-2.138-11.835-11.341-11.835-11.341s6.31,0,10.671,0
				c8.433,0,11.341,0.974,11.341,3.591C464.765,400.013,461.566,402.731,454.588,405.247z"/>
		</g>
		
			<linearGradient id="SVGID_3_" gradientUnits="userSpaceOnUse" x1="63.7466" y1="717.8828" x2="391.0397" y2="711.8378" gradientTransform="matrix(1.4539 0 0 -1.4539 -0.2273 1401.5159)">
			<stop  offset="0" style="stop-color:#F18447"/>
			<stop  offset="0.367" style="stop-color:#CE3359"/>
			<stop  offset="0.642" style="stop-color:#14438E"/>
			<stop  offset="0.9973" style="stop-color:#007ECC"/>
		</linearGradient>
		<rect x="489.961" y="358.228" fill="url(#SVGID_3_)" width="14.073" height="14.074"/>
		<g>
			<g>
				
					<linearGradient id="SVGID_4_" gradientUnits="userSpaceOnUse" x1="62.9946" y1="677.1523" x2="390.2878" y2="671.1074" gradientTransform="matrix(1.4539 0 0 -1.4539 -0.2273 1401.5159)">
					<stop  offset="0" style="stop-color:#F18447"/>
					<stop  offset="0.367" style="stop-color:#CE3359"/>
					<stop  offset="0.642" style="stop-color:#14438E"/>
					<stop  offset="0.9973" style="stop-color:#007ECC"/>
				</linearGradient>
				<path fill="url(#SVGID_4_)" d="M130.196,383.525c0,0,0,31.375,0,38.731c0,5.642-1.934,8.2-10.366,8.2
					c-4.071,0-12.125,0-12.125,0v21.329c0,0,9.61,0,16.211,0c16.385,0,20.834-7.227,20.834-31.172c0-8.724,0-37.089,0-37.089
					H130.196z"/>
				
					<linearGradient id="SVGID_5_" gradientUnits="userSpaceOnUse" x1="63.2305" y1="689.8936" x2="390.5236" y2="683.8486" gradientTransform="matrix(1.4539 0 0 -1.4539 -0.2273 1401.5159)">
					<stop  offset="0" style="stop-color:#F18447"/>
					<stop  offset="0.367" style="stop-color:#CE3359"/>
					<stop  offset="0.642" style="stop-color:#14438E"/>
					<stop  offset="0.9973" style="stop-color:#007ECC"/>
				</linearGradient>
				<path fill="url(#SVGID_5_)" d="M274.582,427.651L274.582,427.651L274.582,427.651h8.476c15.033,0,15.179-13.798,15.179-23.844
					c0-4.551,0-20.282,0-20.282h-13.958c0,0,0,10.25,0,13.841c0,7.372,0.029,8.941-7.153,8.941c-1.934,0-6.223-0.102-7.677-0.188
					l-0.102-16.487c-18.523-1.934-20.98-17.083-43.253-17.083c-11.544,0-17.359,0-17.359,0v18.421c0,0,3.286,0,12.881,0
					c11.515,0,18.726,8.272,26.097,10.497c-3.097,0.872-7.734,4.87-27.42,4.87h-14.292h-0.131c-6.106,0-8.083-3.823-8.723-6.513
					c-0.523-2.196-0.596-8.724-10.439-15.731c-3.504-2.501-11.413-7.662-17.999-11.631l-8.898,17.258
					c20.224,12.373,22.579,13.39,22.593,15.208c0.015,1.803-2.457,1.687-8.854,1.687c-12.707,0-20.82,0-20.82,0l-0.102,21.431
					c0,0,5.045,0,16.487,0c11.253,0,16.385-4.362,18.232-11.341c3.78,7.081,8.825,10.963,18.522,10.963l0.146-0.029l18.13,0.029
					c19.657,0,26.083-11.341,31.898-14.248C256.83,423.086,260.609,427.651,274.582,427.651L274.582,427.651z"/>
			</g>
			
				<linearGradient id="SVGID_6_" gradientUnits="userSpaceOnUse" x1="63.7485" y1="717.8262" x2="391.0255" y2="711.7815" gradientTransform="matrix(1.4539 0 0 -1.4539 -0.2273 1401.5159)">
				<stop  offset="0" style="stop-color:#F18447"/>
				<stop  offset="0.367" style="stop-color:#CE3359"/>
				<stop  offset="0.642" style="stop-color:#14438E"/>
				<stop  offset="0.9973" style="stop-color:#007ECC"/>
			</linearGradient>
			<rect x="159.55" y="352.209" fill="url(#SVGID_6_)" width="14.074" height="14.074"/>
			
				<linearGradient id="SVGID_7_" gradientUnits="userSpaceOnUse" x1="62.6812" y1="660.5537" x2="389.9906" y2="654.5085" gradientTransform="matrix(1.4539 0 0 -1.4539 -0.2273 1401.5159)">
				<stop  offset="0" style="stop-color:#F18447"/>
				<stop  offset="0.367" style="stop-color:#CE3359"/>
				<stop  offset="0.642" style="stop-color:#14438E"/>
				<stop  offset="0.9973" style="stop-color:#007ECC"/>
			</linearGradient>
			<rect x="279.03" y="437.712" fill="url(#SVGID_7_)" width="14.074" height="14.074"/>
		</g>
	</g>
	
		<linearGradient id="SVGID_8_" gradientUnits="userSpaceOnUse" x1="52.1563" y1="691.6152" x2="369.1064" y2="691.6152" gradientTransform="matrix(1.4539 0 0 -1.4539 -0.2273 1401.5159)">
		<stop  offset="0" style="stop-color:#F18447"/>
		<stop  offset="0.367" style="stop-color:#CE3359"/>
		<stop  offset="0.642" style="stop-color:#14438E"/>
		<stop  offset="0.9973" style="stop-color:#007ECC"/>
	</linearGradient>
	<path fill="url(#SVGID_8_)" d="M282.098,337.554c1.526,0.494,3.039,0.974,4.551,1.396c1.526,0.407,3.039,0.8,4.565,1.105
		c3.053,0.582,6.106,0.945,9.087,0.843c2.98-0.073,5.889-0.567,8.709-1.396s5.583-1.992,8.374-3.271
		c5.568-2.588,11.341-5.583,17.549-7.836c1.541-0.582,3.111-1.105,4.71-1.584c1.585-0.48,3.185-0.931,4.813-1.323
		c3.228-0.8,6.514-1.352,9.8-1.803c3.285-0.436,6.586-0.712,9.886-0.858c1.644-0.073,3.301-0.116,4.943-0.131l4.74-0.043
		l129.032-0.204c1.439-0.015,3.519-0.015,5.365,0.218c1.89,0.218,3.766,0.596,5.583,1.163c7.313,2.224,13.725,7.153,17.737,13.623
		c2.021,3.228,3.46,6.818,4.23,10.555c0.378,1.875,0.582,3.765,0.625,5.67l0.015,0.712v0.596v1.192v2.37v37.946v37.946v9.479v4.74
		v1.191l-0.029,1.396c-0.043,0.944-0.102,1.904-0.232,2.835c-0.479,3.78-1.643,7.487-3.431,10.846
		c-1.788,3.373-4.173,6.412-7.008,8.941c-5.656,5.089-13.245,8.04-20.849,8.099l-19.046,0.015H447.87h-75.893H220.191h-75.893
		h-18.973h-9.494h-4.74h-2.37h-1.192l-1.425-0.029c-3.795-0.175-7.575-1.032-11.093-2.53c-3.504-1.497-6.731-3.635-9.479-6.251
		c-2.748-2.617-5.045-5.729-6.717-9.16c-1.672-3.431-2.719-7.167-3.083-10.947l-0.102-1.425l-0.029-1.425v-2.399v-4.739v-9.494
		v-18.974v-37.946V357.69v-2.37v-0.596v-0.291v-0.363c0.015-0.48,0.015-0.945,0.044-1.425c0.102-1.905,0.378-3.794,0.829-5.641
		c0.887-3.708,2.442-7.255,4.565-10.424c4.246-6.31,10.803-11.064,18.188-13.027c1.846-0.494,3.722-0.829,5.626-0.989
		c0.945-0.087,1.919-0.116,2.835-0.116h2.37h9.479l127.114-0.015l9.377,0.044c3.039-0.015,6.063-0.131,9.058-0.378
		c6.005-0.465,11.922-1.396,17.767-2.864c2.922-0.727,5.815-1.614,8.738-2.603c2.908-0.989,5.83-2.094,8.869-3.184
		c3.024-1.076,6.179-2.137,9.523-2.806c1.672-0.334,3.373-0.582,5.104-0.64c1.716-0.058,3.445,0.015,5.132,0.247
		c1.687,0.218,3.33,0.625,4.914,1.134c1.585,0.509,3.111,1.105,4.58,1.817c2.937,1.396,5.67,3.097,8.243,4.972
		c-2.966-1.148-5.961-2.195-8.984-2.922c-3.01-0.727-6.049-1.134-9-1.018c-2.951,0.102-5.771,0.756-8.534,1.759
		c-2.763,1.018-5.467,2.384-8.244,3.809c-5.525,2.893-11.413,5.932-17.679,8.142c-6.251,2.239-12.823,3.722-19.395,4.493
		c-3.286,0.378-6.586,0.625-9.872,0.741c-0.829,0.029-1.643,0.044-2.472,0.073c-0.814,0.015-1.585,0.015-2.384,0.015l-4.74,0.015
		l-127.114-0.015h-9.479h-2.37c-0.668,0.015-1.279,0.029-1.904,0.087c-1.25,0.102-2.501,0.32-3.708,0.654
		c-4.856,1.294-9.188,4.434-12.009,8.607c-1.41,2.094-2.428,4.42-3.009,6.862c-0.291,1.221-0.48,2.472-0.553,3.722
		c-0.015,0.32-0.015,0.625-0.029,0.945v0.232v0.291v0.596v2.37v18.973v37.947v18.973v9.494v4.74v2.341l0.029,0.944l0.073,0.945
		c0.247,2.501,0.931,4.958,2.021,7.211c1.09,2.269,2.617,4.318,4.449,6.063c1.832,1.729,3.955,3.154,6.266,4.144
		c2.312,0.988,4.798,1.541,7.313,1.672l37.699,0.028h75.893h151.786h75.893h37.946l18.901-0.014
		c5.045-0.044,10.002-1.978,13.768-5.351c3.766-3.358,6.296-8.069,6.892-13.056c0.087-0.626,0.131-1.251,0.16-1.876l0.029-0.974
		v-1.192v-4.74v-9.479v-37.947v-37.946v-2.37v-1.192v-0.582l-0.015-0.479c-0.029-1.265-0.16-2.516-0.407-3.751
		c-0.509-2.457-1.454-4.827-2.792-6.964c-2.66-4.289-6.935-7.517-11.718-9c-1.192-0.378-2.428-0.625-3.679-0.771
		c-1.279-0.146-2.384-0.16-4.1-0.16l-129.033-0.204l-4.739-0.043c-1.512,0-3.039,0-4.551,0.058c-3.024,0.087-6.033,0.305-9.028,0.64
		c-5.976,0.712-11.835,1.919-17.665,3.547c-5.845,1.6-11.646,3.766-17.897,5.699c-3.126,0.945-6.383,1.789-9.771,2.21
		c-3.372,0.437-6.847,0.422-10.162-0.116C293.322,343.994,287.39,341.086,282.098,337.554z"/>
</g>
</svg>
